# xmcd
# 
# Track frame offsets:
#     150
#     15180
#     35030
#     61430
#     83877
#     125630
#     145757
#     168492
#     187440
#     213340
#     229160
#     252667
# 
# Disc length: 3629
# 
# Revision: 1
# Processed by: cddbd v1.5.2PL0 Copyright (c) Steve Scherf et al.
# Submitted via: BonkEnc v1.0.5
# 
DISCID=b10e2b0c
DTITLE=Garth Webber And Mark Ford - On The Edge
DYEAR=1994
DGENRE=Blues
TTITLE0=It's A Feeling
TTITLE1=Lookin' For You
TTITLE2=Passionate Armenian
TTITLE3=Talk To Me
TTITLE4=Low Moon
TTITLE5=Hot And Cold Eh
TTITLE6=Black Hearted Woman
TTITLE7=Let It Go
TTITLE8=Grace
TTITLE9=I've Got My Feet On The Ground
TTITLE10=Treat Me Like A Man
TTITLE11=Pink Time
EXTD=
EXTT0=
EXTT1=
EXTT2=
EXTT3=
EXTT4=
EXTT5=
EXTT6=
EXTT7=
EXTT8=
EXTT9=
EXTT10=
EXTT11=
PLAYORDER=
